<svg xmlns="http://www.w3.org/2000/svg" width="1680" height="890" viewBox="0 0 1680 890"><defs><marker id="a" markerWidth="12" markerHeight="12" refX="9" refY="4" orient="auto" markerUnits="strokeWidth"><path d="M0 0 L10 4 L0 8 z"/></marker></defs><rect x="0" y="0" width="1680" height="890" rx="0" fill="#FAFBFB"/><rect x="40" y="28" width="1600" height="60" rx="6" fill="#10A37F"/><text x="64" y="68.0" font-size="28" font-weight="700" fill="#FFFFFF" text-anchor="start">商户归属 · 数据模型</text><text x="1616" y="66.0" font-size="15" font-weight="normal" fill="#E7F6F0" text-anchor="end">5 张核心表</text><rect x="90" y="150" width="300" height="226" rx="8" fill="#FFFFFF" stroke="#E1E3E4" stroke-width="2"/><rect x="92" y="152" width="296" height="46" rx="6" fill="#FAFBFB"/><text x="108" y="181" font-size="17" font-weight="700" fill="#0A0C0C" text-anchor="start">代理商 agent</text><text x="108" y="222" font-size="15" font-weight="700" fill="#1A1E1F" text-anchor="start">agent_id</text><text x="372" y="222" font-size="13" font-weight="700" fill="#0B7355" text-anchor="end">PK</text><line x1="102.0" y1="234.0" x2="378.0" y2="234.0" stroke="#EEF0F0" stroke-width="1"/><text x="108" y="256" font-size="15" font-weight="normal" fill="#1A1E1F" text-anchor="start">名称</text><line x1="102.0" y1="268.0" x2="378.0" y2="268.0" stroke="#EEF0F0" stroke-width="1"/><text x="108" y="290" font-size="15" font-weight="normal" fill="#1A1E1F" text-anchor="start">等级</text><line x1="102.0" y1="302.0" x2="378.0" y2="302.0" stroke="#EEF0F0" stroke-width="1"/><text x="108" y="324" font-size="15" font-weight="normal" fill="#1A1E1F" text-anchor="start">客户经理</text><line x1="102.0" y1="336.0" x2="378.0" y2="336.0" stroke="#EEF0F0" stroke-width="1"/><text x="108" y="358" font-size="15" font-weight="normal" fill="#1A1E1F" text-anchor="start">创建时间</text><rect x="690" y="150" width="300" height="226" rx="8" fill="#FFFFFF" stroke="#10A37F" stroke-width="2"/><rect x="692" y="152" width="296" height="46" rx="6" fill="#10A37F"/><text x="708" y="181" font-size="17" font-weight="700" fill="#FFFFFF" text-anchor="start">商户 merchant</text><text x="708" y="222" font-size="15" font-weight="700" fill="#1A1E1F" text-anchor="start">merchant_id</text><text x="972" y="222" font-size="13" font-weight="700" fill="#0B7355" text-anchor="end">PK</text><line x1="702.0" y1="234.0" x2="978.0" y2="234.0" stroke="#EEF0F0" stroke-width="1"/><text x="708" y="256" font-size="15" font-weight="normal" fill="#1A1E1F" text-anchor="start">agent_id</text><text x="972" y="256" font-size="13" font-weight="700" fill="#6B7173" text-anchor="end">FK</text><line x1="702.0" y1="268.0" x2="978.0" y2="268.0" stroke="#EEF0F0" stroke-width="1"/><text x="708" y="290" font-size="15" font-weight="normal" fill="#1A1E1F" text-anchor="start">B/C 标签</text><line x1="702.0" y1="302.0" x2="978.0" y2="302.0" stroke="#EEF0F0" stroke-width="1"/><text x="708" y="324" font-size="15" font-weight="normal" fill="#1A1E1F" text-anchor="start">状态</text><line x1="702.0" y1="336.0" x2="978.0" y2="336.0" stroke="#EEF0F0" stroke-width="1"/><text x="708" y="358" font-size="15" font-weight="normal" fill="#1A1E1F" text-anchor="start">注册时间</text><rect x="1290" y="150" width="300" height="226" rx="8" fill="#FFFFFF" stroke="#E1E3E4" stroke-width="2"/><rect x="1292" y="152" width="296" height="46" rx="6" fill="#FAFBFB"/><text x="1308" y="181" font-size="17" font-weight="700" fill="#0A0C0C" text-anchor="start">交易 transaction</text><text x="1308" y="222" font-size="15" font-weight="700" fill="#1A1E1F" text-anchor="start">txn_id</text><text x="1572" y="222" font-size="13" font-weight="700" fill="#0B7355" text-anchor="end">PK</text><line x1="1302.0" y1="234.0" x2="1578.0" y2="234.0" stroke="#EEF0F0" stroke-width="1"/><text x="1308" y="256" font-size="15" font-weight="normal" fill="#1A1E1F" text-anchor="start">merchant_id</text><text x="1572" y="256" font-size="13" font-weight="700" fill="#6B7173" text-anchor="end">FK</text><line x1="1302.0" y1="268.0" x2="1578.0" y2="268.0" stroke="#EEF0F0" stroke-width="1"/><text x="1308" y="290" font-size="15" font-weight="normal" fill="#1A1E1F" text-anchor="start">金额 NGN</text><line x1="1302.0" y1="302.0" x2="1578.0" y2="302.0" stroke="#EEF0F0" stroke-width="1"/><text x="1308" y="324" font-size="15" font-weight="normal" fill="#1A1E1F" text-anchor="start">交易类型</text><line x1="1302.0" y1="336.0" x2="1578.0" y2="336.0" stroke="#EEF0F0" stroke-width="1"/><text x="1308" y="358" font-size="15" font-weight="normal" fill="#1A1E1F" text-anchor="start">交易时间</text><rect x="90" y="530" width="300" height="226" rx="8" fill="#FFFFFF" stroke="#E1E3E4" stroke-width="2"/><rect x="92" y="532" width="296" height="46" rx="6" fill="#FAFBFB"/><text x="108" y="561" font-size="17" font-weight="700" fill="#0A0C0C" text-anchor="start">佣金结算 settlement</text><text x="108" y="602" font-size="15" font-weight="700" fill="#1A1E1F" text-anchor="start">settle_id</text><text x="372" y="602" font-size="13" font-weight="700" fill="#0B7355" text-anchor="end">PK</text><line x1="102.0" y1="614.0" x2="378.0" y2="614.0" stroke="#EEF0F0" stroke-width="1"/><text x="108" y="636" font-size="15" font-weight="normal" fill="#1A1E1F" text-anchor="start">agent_id</text><text x="372" y="636" font-size="13" font-weight="700" fill="#6B7173" text-anchor="end">FK</text><line x1="102.0" y1="648.0" x2="378.0" y2="648.0" stroke="#EEF0F0" stroke-width="1"/><text x="108" y="670" font-size="15" font-weight="normal" fill="#1A1E1F" text-anchor="start">结算月</text><line x1="102.0" y1="682.0" x2="378.0" y2="682.0" stroke="#EEF0F0" stroke-width="1"/><text x="108" y="704" font-size="15" font-weight="normal" fill="#1A1E1F" text-anchor="start">佣金 NGN</text><line x1="102.0" y1="716.0" x2="378.0" y2="716.0" stroke="#EEF0F0" stroke-width="1"/><text x="108" y="738" font-size="15" font-weight="normal" fill="#1A1E1F" text-anchor="start">封顶标记</text><rect x="690" y="530" width="300" height="226" rx="8" fill="#FFFFFF" stroke="#E8A23D" stroke-width="2"/><rect x="692" y="532" width="296" height="46" rx="6" fill="#FCF2E1"/><text x="708" y="561" font-size="17" font-weight="700" fill="#8A5B12" text-anchor="start">转移记录 transfer</text><text x="974" y="561" font-size="13" font-weight="700" fill="#8A5B12" text-anchor="end">1 期新增</text><text x="708" y="602" font-size="15" font-weight="700" fill="#1A1E1F" text-anchor="start">transfer_id</text><text x="972" y="602" font-size="13" font-weight="700" fill="#0B7355" text-anchor="end">PK</text><line x1="702.0" y1="614.0" x2="978.0" y2="614.0" stroke="#EEF0F0" stroke-width="1"/><text x="708" y="636" font-size="15" font-weight="normal" fill="#1A1E1F" text-anchor="start">merchant_id</text><text x="972" y="636" font-size="13" font-weight="700" fill="#6B7173" text-anchor="end">FK</text><line x1="702.0" y1="648.0" x2="978.0" y2="648.0" stroke="#EEF0F0" stroke-width="1"/><text x="708" y="670" font-size="15" font-weight="normal" fill="#1A1E1F" text-anchor="start">from_agent_id</text><text x="972" y="670" font-size="13" font-weight="700" fill="#6B7173" text-anchor="end">FK</text><line x1="702.0" y1="682.0" x2="978.0" y2="682.0" stroke="#EEF0F0" stroke-width="1"/><text x="708" y="704" font-size="15" font-weight="normal" fill="#1A1E1F" text-anchor="start">to_agent_id</text><text x="972" y="704" font-size="13" font-weight="700" fill="#6B7173" text-anchor="end">FK</text><line x1="702.0" y1="716.0" x2="978.0" y2="716.0" stroke="#EEF0F0" stroke-width="1"/><text x="708" y="738" font-size="15" font-weight="normal" fill="#1A1E1F" text-anchor="start">审批状态</text><line x1="390.0" y1="240.0" x2="690.0" y2="240.0" stroke="#4A5052" stroke-width="2"/><text x="402" y="230" font-size="15" font-weight="700" fill="#0B7355" text-anchor="start">1</text><text x="678" y="230" font-size="15" font-weight="700" fill="#0B7355" text-anchor="end">N</text><rect x="504.0" y="210" width="72.0" height="26" rx="4" fill="#FAFBFB"/><text x="540" y="230" font-size="14" font-weight="normal" fill="#1A1E1F" text-anchor="middle">名下商户</text><line x1="990.0" y1="240.0" x2="1290.0" y2="240.0" stroke="#4A5052" stroke-width="2"/><text x="1002" y="230" font-size="15" font-weight="700" fill="#0B7355" text-anchor="start">1</text><text x="1278" y="230" font-size="15" font-weight="700" fill="#0B7355" text-anchor="end">N</text><rect x="1104.0" y="210" width="72.0" height="26" rx="4" fill="#FAFBFB"/><text x="1140" y="230" font-size="14" font-weight="normal" fill="#1A1E1F" text-anchor="middle">产生交易</text><line x1="170.0" y1="376.0" x2="170.0" y2="530.0" stroke="#4A5052" stroke-width="2"/><text x="180" y="398" font-size="15" font-weight="700" fill="#0B7355" text-anchor="start">1</text><text x="180" y="520" font-size="15" font-weight="700" fill="#0B7355" text-anchor="start">N</text><rect x="214.0" y="441.0" width="72.0" height="26" rx="4" fill="#FAFBFB"/><text x="250" y="461.0" font-size="14" font-weight="normal" fill="#1A1E1F" text-anchor="middle">按月结算</text><line x1="840.0" y1="376.0" x2="840.0" y2="530.0" stroke="#4A5052" stroke-width="2"/><text x="850" y="398" font-size="15" font-weight="700" fill="#0B7355" text-anchor="start">1</text><text x="850" y="520" font-size="15" font-weight="700" fill="#0B7355" text-anchor="start">N</text><rect x="884.0" y="441.0" width="72.0" height="26" rx="4" fill="#FAFBFB"/><text x="920" y="461.0" font-size="14" font-weight="normal" fill="#1A1E1F" text-anchor="middle">归属变更</text><polyline points="390.0,330.0 540.0,330.0 540.0,640.0 690.0,640.0" fill="none" stroke="#4A5052" stroke-width="2"/><text x="402" y="320" font-size="15" font-weight="700" fill="#0B7355" text-anchor="start">1</text><text x="678" y="630" font-size="15" font-weight="700" fill="#0B7355" text-anchor="end">N</text><rect x="491.4" y="462" width="97.20000000000002" height="26" rx="4" fill="#FAFBFB"/><text x="540" y="482" font-size="14" font-weight="normal" fill="#1A1E1F" text-anchor="middle">转出 / 转入</text><rect x="1290" y="530" width="300" height="160" rx="8" fill="#FFFFFF" stroke="#E1E3E4" stroke-width="2"/><text x="1308" y="564" font-size="16" font-weight="700" fill="#0A0C0C" text-anchor="start">图例</text><text x="1308" y="600" font-size="15" font-weight="700" fill="#0B7355" text-anchor="start">PK</text><text x="1390" y="600" font-size="15" font-weight="normal" fill="#1A1E1F" text-anchor="start">主键</text><text x="1308" y="630" font-size="15" font-weight="700" fill="#0B7355" text-anchor="start">FK</text><text x="1390" y="630" font-size="15" font-weight="normal" fill="#1A1E1F" text-anchor="start">外键</text><text x="1308" y="660" font-size="15" font-weight="700" fill="#0B7355" text-anchor="start">1 — N</text><text x="1390" y="660" font-size="15" font-weight="normal" fill="#1A1E1F" text-anchor="start">一对多</text><rect x="40" y="800" width="1600" height="58" rx="6" fill="#10A37F"/><text x="64" y="836" font-size="14" font-weight="700" fill="#FFFFFF" text-anchor="start">商户是中心表；转移记录同时挂商户和两次代理商（转出/转入），归属历史从此可查</text></svg>