<svg xmlns="http://www.w3.org/2000/svg" width="1680" height="890" viewBox="0 0 1680 890"><defs><marker id="a" markerWidth="12" markerHeight="12" refX="9" refY="4" orient="auto" markerUnits="strokeWidth"><path d="M0 0 L10 4 L0 8 z"/></marker></defs><rect x="0" y="0" width="1680" height="890" rx="0" fill="#FAFBFB"/><rect x="40" y="28" width="1600" height="60" rx="6" fill="#10A37F"/><text x="64" y="68.0" font-size="28" font-weight="700" fill="#FFFFFF" text-anchor="start">各州代理商达标率 · Q2 → Q3</text><text x="1616" y="66.0" font-size="15" font-weight="normal" fill="#E7F6F0" text-anchor="end">合格率 %</text><line x1="560.0" y1="170.0" x2="560.0" y2="750.0" stroke="#E1E3E4" stroke-width="2"/><line x1="1120.0" y1="170.0" x2="1120.0" y2="750.0" stroke="#E1E3E4" stroke-width="2"/><text x="560" y="154" font-size="18" font-weight="700" fill="#0A0C0C" text-anchor="middle">Q2</text><text x="1120" y="154" font-size="18" font-weight="700" fill="#0A0C0C" text-anchor="middle">Q3</text><line x1="560.0" y1="388.0" x2="1120.0" y2="344.0" stroke="#C4C8C9" stroke-width="2"/><circle cx="560" cy="388.0" r="7" fill="#C4C8C9"/><circle cx="1120" cy="344.0" r="7" fill="#C4C8C9"/><text x="536" y="394.0" font-size="16" font-weight="normal" fill="#1A1E1F" text-anchor="end">Abuja  52%</text><text x="1144" y="350.0" font-size="16" font-weight="normal" fill="#1A1E1F" text-anchor="start">56%  Abuja</text><text x="1330" y="350.0" font-size="16" font-weight="700" fill="#6B7173" text-anchor="end">+4</text><line x1="560.0" y1="487.0" x2="1120.0" y2="432.0" stroke="#C4C8C9" stroke-width="2"/><circle cx="560" cy="487.0" r="7" fill="#C4C8C9"/><circle cx="1120" cy="432.0" r="7" fill="#C4C8C9"/><text x="536" y="493.0" font-size="16" font-weight="normal" fill="#1A1E1F" text-anchor="end">Oyo  43%</text><text x="1144" y="437.99999999999994" font-size="16" font-weight="normal" fill="#1A1E1F" text-anchor="start">48%  Oyo</text><text x="1330" y="437.99999999999994" font-size="16" font-weight="700" fill="#6B7173" text-anchor="end">+5</text><line x1="560.0" y1="553.0" x2="1120.0" y2="575.0" stroke="#C4C8C9" stroke-width="2"/><circle cx="560" cy="553.0" r="7" fill="#C4C8C9"/><circle cx="1120" cy="575.0" r="7" fill="#C4C8C9"/><text x="536" y="559.0" font-size="16" font-weight="normal" fill="#1A1E1F" text-anchor="end">Kano  37%</text><text x="1144" y="581.0" font-size="16" font-weight="normal" fill="#1A1E1F" text-anchor="start">35%  Kano</text><text x="1330" y="581.0" font-size="16" font-weight="700" fill="#6B7173" text-anchor="end">−2</text><line x1="560.0" y1="619.0" x2="1120.0" y2="619.0" stroke="#C4C8C9" stroke-width="2"/><circle cx="560" cy="619.0" r="7" fill="#C4C8C9"/><circle cx="1120" cy="619.0" r="7" fill="#C4C8C9"/><text x="536" y="625.0" font-size="16" font-weight="normal" fill="#1A1E1F" text-anchor="end">Kaduna  31%</text><text x="1144" y="625.0" font-size="16" font-weight="normal" fill="#1A1E1F" text-anchor="start">31%  Kaduna</text><text x="1330" y="625.0" font-size="16" font-weight="700" fill="#6B7173" text-anchor="end">±0</text><line x1="560.0" y1="685.0" x2="1120.0" y2="663.0" stroke="#C4C8C9" stroke-width="2"/><circle cx="560" cy="685.0" r="7" fill="#C4C8C9"/><circle cx="1120" cy="663.0" r="7" fill="#C4C8C9"/><text x="536" y="691.0" font-size="16" font-weight="normal" fill="#1A1E1F" text-anchor="end">Enugu  25%</text><text x="1144" y="669.0" font-size="16" font-weight="normal" fill="#1A1E1F" text-anchor="start">27%  Enugu</text><text x="1330" y="669.0" font-size="16" font-weight="700" fill="#6B7173" text-anchor="end">+2</text><line x1="560.0" y1="322.0" x2="1120.0" y2="256.0" stroke="#10A37F" stroke-width="4"/><circle cx="560" cy="322.0" r="7" fill="#10A37F"/><circle cx="1120" cy="256.0" r="7" fill="#10A37F"/><text x="536" y="328.0" font-size="16" font-weight="700" fill="#0B7355" text-anchor="end">Lagos  58%</text><text x="1144" y="262.0" font-size="16" font-weight="700" fill="#0B7355" text-anchor="start">64%  Lagos</text><text x="1330" y="262.0" font-size="16" font-weight="700" fill="#0B7355" text-anchor="end">+6</text><line x1="560.0" y1="443.0" x2="1120.0" y2="520.0" stroke="#E8A23D" stroke-width="4"/><circle cx="560" cy="443.0" r="7" fill="#E8A23D"/><circle cx="1120" cy="520.0" r="7" fill="#E8A23D"/><text x="536" y="449.0" font-size="16" font-weight="700" fill="#8A5B12" text-anchor="end">Rivers  47%</text><text x="1144" y="526.0" font-size="16" font-weight="700" fill="#8A5B12" text-anchor="start">40%  Rivers</text><text x="1330" y="526.0" font-size="16" font-weight="700" fill="#8A5B12" text-anchor="end">−7</text><rect x="40" y="800" width="1600" height="58" rx="6" fill="#10A37F"/><text x="64" y="836" font-size="14" font-weight="700" fill="#FFFFFF" text-anchor="start">7 个州里 5 个上升；Lagos 涨幅最大（+6），Rivers 是唯一明显下滑（−7），和热力图的活跃率走势一致</text></svg>